<?xml version="1.0" encoding="utf-8"?>
<!-- Generator: Adobe Illustrator 24.2.3, SVG Export Plug-In . SVG Version: 6.00 Build 0)  -->
<svg version="1.1" id="Layer_1" xmlns="http://www.w3.org/2000/svg" xmlns:xlink="http://www.w3.org/1999/xlink" x="0px" y="0px"
	 viewBox="0 0 56.77 59.6" style="enable-background:new 0 0 56.77 59.6;" xml:space="preserve">
<style type="text/css">
	.st0{fill:#ADDFE4;}
	.st1{fill:#5CCBEE;}
	.st2{opacity:0;}
	.st3{fill:#FFFFFF;}
</style>
<g>
	<g>
		<polygon class="st0" points="42.88,36.63 53.33,18.39 41.16,18.39 36.77,26.04 32.34,18.39 19.98,18.39 30.62,36.74 18.64,57.6 
			30.88,57.6 36.75,47.34 42.7,57.6 55,57.6 		"/>
	</g>
	<g>
		<path class="st0" d="M19.64,17.42l9.41,4.38c-2.45,5.15-7.7,8.71-13.79,8.71c-6.09,0-11.34-3.56-13.79-8.72
			C0.53,19.82,0,17.6,0,15.26C0,13,0.5,10.84,1.38,8.91C3.79,3.65,9.1,0,15.26,0c6.16,0,11.47,3.65,13.88,8.9l-9.41,4.39
			c-0.75-1.71-2.47-2.91-4.47-2.91s-3.71,1.2-4.47,2.92c-0.27,0.6-0.41,1.26-0.41,1.96c0,0.77,0.18,1.5,0.5,2.15
			c0.79,1.62,2.45,2.73,4.38,2.73C17.18,20.14,18.84,19.03,19.64,17.42z"/>
	</g>
	<g>
		<polygon class="st1" points="53.32,18.39 41.14,18.39 36.75,26.04 32.33,18.39 19.97,18.39 30.6,36.74 18.62,57.6 30.86,57.6 		
			"/>
		<g class="st2">
			<path class="st3" d="M53.32,18.39L30.86,57.6H18.62L30.6,36.74L19.97,18.39h12.36l4.42,7.65l4.39-7.65H53.32 M56.77,16.39h-3.45
				H41.14h-1.16l-0.58,1l-2.67,4.64l-2.68-4.65l-0.58-1h-1.15H19.97H16.5l1.74,3l10.06,17.36L16.89,56.6l-1.72,3h3.46h12.24h1.16
				l0.58-1.01l22.45-39.21L56.77,16.39L56.77,16.39z"/>
		</g>
	</g>
</g>
</svg>
